<?xml version="1.0" encoding="UTF-8"?>
<!DOCTYPE svg PUBLIC "-//W3C//DTD SVG 1.1//EN" "http://www.w3.org/Graphics/SVG/1.1/DTD/svg11.dtd">
<svg version="1.2" width="3.28mm" height="2.54mm" viewBox="1951 1383 328 254" preserveAspectRatio="xMidYMid" fill-rule="evenodd" stroke-width="28.222" stroke-linejoin="round" xmlns="http://www.w3.org/2000/svg" xmlns:ooo="http://xml.openoffice.org/svg/export" xmlns:xlink="http://www.w3.org/1999/xlink" xmlns:presentation="http://sun.com/xmlns/staroffice/presentation" xmlns:smil="http://www.w3.org/2001/SMIL20/" xmlns:anim="urn:oasis:names:tc:opendocument:xmlns:animation:1.0" xml:space="preserve">
 <defs class="EmbeddedBulletChars">
  <g id="bullet-char-template-57356" transform="scale(0.00048828125,-0.00048828125)">
   <path d="M 580,1141 L 1163,571 580,0 -4,571 580,1141 Z"/>
  </g>
  <g id="bullet-char-template-57354" transform="scale(0.00048828125,-0.00048828125)">
   <path d="M 8,1128 L 1137,1128 1137,0 8,0 8,1128 Z"/>
  </g>
  <g id="bullet-char-template-10146" transform="scale(0.00048828125,-0.00048828125)">
   <path d="M 174,0 L 602,739 174,1481 1456,739 174,0 Z M 1358,739 L 309,1346 659,739 1358,739 Z"/>
  </g>
  <g id="bullet-char-template-10132" transform="scale(0.00048828125,-0.00048828125)">
   <path d="M 2015,739 L 1276,0 717,0 1260,543 174,543 174,936 1260,936 717,1481 1274,1481 2015,739 Z"/>
  </g>
  <g id="bullet-char-template-10007" transform="scale(0.00048828125,-0.00048828125)">
   <path d="M 0,-2 C -7,14 -16,27 -25,37 L 356,567 C 262,823 215,952 215,954 215,979 228,992 255,992 264,992 276,990 289,987 310,991 331,999 354,1012 L 381,999 492,748 772,1049 836,1024 860,1049 C 881,1039 901,1025 922,1006 886,937 835,863 770,784 769,783 710,716 594,584 L 774,223 C 774,196 753,168 711,139 L 727,119 C 717,90 699,76 672,76 641,76 570,178 457,381 L 164,-76 C 142,-110 111,-127 72,-127 30,-127 9,-110 8,-76 1,-67 -2,-52 -2,-32 -2,-23 -1,-13 0,-2 Z"/>
  </g>
  <g id="bullet-char-template-10004" transform="scale(0.00048828125,-0.00048828125)">
   <path d="M 285,-33 C 182,-33 111,30 74,156 52,228 41,333 41,471 41,549 55,616 82,672 116,743 169,778 240,778 293,778 328,747 346,684 L 369,508 C 377,444 397,411 428,410 L 1163,1116 C 1174,1127 1196,1133 1229,1133 1271,1133 1292,1118 1292,1087 L 1292,965 C 1292,929 1282,901 1262,881 L 442,47 C 390,-6 338,-33 285,-33 Z"/>
  </g>
  <g id="bullet-char-template-9679" transform="scale(0.00048828125,-0.00048828125)">
   <path d="M 813,0 C 632,0 489,54 383,161 276,268 223,411 223,592 223,773 276,916 383,1023 489,1130 632,1184 813,1184 992,1184 1136,1130 1245,1023 1353,916 1407,772 1407,592 1407,412 1353,268 1245,161 1136,54 992,0 813,0 Z"/>
  </g>
  <g id="bullet-char-template-8226" transform="scale(0.00048828125,-0.00048828125)">
   <path d="M 346,457 C 273,457 209,483 155,535 101,586 74,649 74,723 74,796 101,859 155,911 209,963 273,989 346,989 419,989 480,963 531,910 582,859 608,796 608,723 608,648 583,586 532,535 482,483 420,457 346,457 Z"/>
  </g>
  <g id="bullet-char-template-8211" transform="scale(0.00048828125,-0.00048828125)">
   <path d="M -4,459 L 1135,459 1135,606 -4,606 -4,459 Z"/>
  </g>
  <g id="bullet-char-template-61548" transform="scale(0.00048828125,-0.00048828125)">
   <path d="M 173,740 C 173,903 231,1043 346,1159 462,1274 601,1332 765,1332 928,1332 1067,1274 1183,1159 1299,1043 1357,903 1357,740 1357,577 1299,437 1183,322 1067,206 928,148 765,148 601,148 462,206 346,322 231,437 173,577 173,740 Z"/>
  </g>
 </defs>
 <g class="Page">
  <g class="Group">
   <g class="com.sun.star.drawing.ClosedBezierShape">
    <g id="id3">
     <rect class="BoundingBox" stroke="none" fill="none" x="2069" y="1405" width="26" height="31"/>
     <path fill="rgb(35,31,32)" stroke="none" d="M 2073,1434 L 2079,1435 2094,1409 C 2086,1406 2078,1405 2070,1405 2071,1414 2072,1425 2073,1434 Z"/>
    </g>
   </g>
   <g class="com.sun.star.drawing.ClosedBezierShape">
    <g id="id4">
     <rect class="BoundingBox" stroke="none" fill="none" x="2022" y="1467" width="33" height="29"/>
     <path fill="rgb(35,31,32)" stroke="none" d="M 2054,1474 L 2050,1467 2022,1477 C 2025,1484 2029,1490 2035,1495 L 2054,1474 Z"/>
    </g>
   </g>
   <g class="com.sun.star.drawing.ClosedBezierShape">
    <g id="id5">
     <rect class="BoundingBox" stroke="none" fill="none" x="2017" y="1436" width="33" height="24"/>
     <path fill="rgb(35,31,32)" stroke="none" d="M 2048,1449 C 2039,1444 2031,1440 2022,1436 2020,1444 2019,1450 2018,1459 L 2048,1456 C 2048,1453 2049,1449 2048,1449 Z"/>
    </g>
   </g>
   <g class="com.sun.star.drawing.ClosedBezierShape">
    <g id="id6">
     <rect class="BoundingBox" stroke="none" fill="none" x="2032" y="1408" width="31" height="33"/>
     <path fill="rgb(35,31,32)" stroke="none" d="M 2053,1408 L 2032,1421 2056,1440 C 2062,1436 2062,1437 2060,1431 2059,1428 2059,1427 2058,1426 2057,1420 2055,1415 2053,1408 Z"/>
    </g>
   </g>
   <g class="com.sun.star.drawing.ClosedBezierShape">
    <g id="id7">
     <rect class="BoundingBox" stroke="none" fill="none" x="1982" y="1425" width="16" height="13"/>
     <path fill="rgb(35,31,32)" stroke="none" d="M 1982,1437 C 1985,1437 1987,1437 1989,1437 1993,1437 1995,1437 1995,1434 1996,1432 1996,1430 1997,1427 L 1994,1425 C 1989,1430 1986,1433 1982,1437 Z"/>
    </g>
   </g>
   <g class="com.sun.star.drawing.ClosedBezierShape">
    <g id="id8">
     <rect class="BoundingBox" stroke="none" fill="none" x="2090" y="1419" width="32" height="29"/>
     <path fill="rgb(35,31,32)" stroke="none" d="M 2121,1438 C 2119,1431 2114,1425 2109,1419 L 2090,1441 2093,1447 2121,1438 Z"/>
    </g>
   </g>
   <g class="com.sun.star.drawing.ClosedBezierShape">
    <g id="id9">
     <rect class="BoundingBox" stroke="none" fill="none" x="2094" y="1455" width="32" height="24"/>
     <path fill="rgb(35,31,32)" stroke="none" d="M 2125,1455 L 2096,1458 2094,1464 2121,1478 C 2124,1470 2125,1463 2125,1455 Z"/>
    </g>
   </g>
   <g class="com.sun.star.drawing.ClosedBezierShape">
    <g id="id10">
     <rect class="BoundingBox" stroke="none" fill="none" x="2112" y="1384" width="21" height="10"/>
     <path fill="rgb(35,31,32)" stroke="none" d="M 2132,1385 C 2126,1384 2120,1384 2114,1384 L 2113,1384 C 2113,1385 2113,1386 2112,1388 2120,1394 2120,1394 2128,1388 2129,1387 2131,1386 2132,1385 Z"/>
    </g>
   </g>
   <g class="com.sun.star.drawing.ClosedBezierShape">
    <g id="id11">
     <rect class="BoundingBox" stroke="none" fill="none" x="2059" y="1446" width="28" height="27"/>
     <path fill="rgb(35,31,32)" stroke="none" d="M 2085,1455 C 2082,1449 2075,1444 2068,1447 2062,1449 2059,1454 2059,1460 2061,1467 2067,1472 2075,1471 2081,1468 2086,1462 2085,1455 Z"/>
    </g>
   </g>
   <g class="com.sun.star.drawing.ClosedBezierShape">
    <g id="id12">
     <rect class="BoundingBox" stroke="none" fill="none" x="2050" y="1479" width="24" height="32"/>
     <path fill="rgb(35,31,32)" stroke="none" d="M 2073,1506 C 2073,1499 2072,1490 2071,1482 2071,1479 2069,1479 2067,1479 2066,1478 2064,1479 2063,1480 L 2063,1481 C 2062,1483 2060,1486 2058,1488 2055,1493 2053,1499 2050,1505 L 2073,1509 C 2073,1508 2073,1507 2073,1506 Z"/>
    </g>
   </g>
   <g class="com.sun.star.drawing.ClosedBezierShape">
    <g id="id13">
     <rect class="BoundingBox" stroke="none" fill="none" x="2083" y="1474" width="30" height="33"/>
     <path fill="rgb(35,31,32)" stroke="none" d="M 2086,1490 L 2091,1506 2111,1493 2088,1474 C 2081,1478 2082,1477 2084,1483 2084,1485 2085,1487 2086,1490 Z"/>
    </g>
   </g>
   <g class="com.sun.star.drawing.ClosedBezierShape">
    <g id="id14">
     <rect class="BoundingBox" stroke="none" fill="none" x="2144" y="1561" width="41" height="40"/>
     <path fill="rgb(35,31,32)" stroke="none" d="M 2166,1561 C 2156,1560 2146,1568 2145,1578 2144,1588 2152,1598 2163,1599 2173,1600 2182,1592 2183,1581 2184,1571 2176,1562 2166,1561 Z"/>
    </g>
   </g>
   <g class="com.sun.star.drawing.ClosedBezierShape">
    <g id="id15">
     <rect class="BoundingBox" stroke="none" fill="none" x="1952" y="1385" width="326" height="251"/>
     <path fill="rgb(35,31,32)" stroke="none" d="M 2134,1385 L 2137,1387 2129,1400 2135,1407 2149,1401 C 2154,1406 2154,1406 2149,1410 L 2142,1416 2142,1418 C 2146,1425 2146,1425 2155,1424 L 2161,1422 C 2161,1424 2162,1424 2162,1425 2163,1426 2163,1427 2163,1428 L 2150,1436 C 2151,1445 2151,1445 2160,1446 L 2167,1446 C 2168,1452 2168,1452 2163,1454 2161,1454 2159,1455 2158,1455 L 2153,1456 C 2153,1459 2152,1462 2152,1466 2156,1467 2160,1469 2164,1470 2166,1471 2166,1472 2166,1474 2166,1476 2165,1477 2163,1477 2160,1477 2157,1477 2154,1477 2151,1477 2149,1477 2148,1481 2148,1483 2147,1484 2147,1486 L 2159,1494 C 2157,1501 2157,1501 2150,1499 2142,1496 2141,1496 2136,1504 L 2146,1516 2142,1520 2129,1513 2128,1513 C 2121,1519 2121,1519 2125,1527 2128,1533 2128,1533 2122,1536 2120,1534 2117,1531 2115,1528 2114,1526 2110,1525 2108,1526 2107,1526 2107,1527 2107,1527 2106,1528 2104,1528 2103,1529 2104,1534 2104,1539 2105,1544 L 2099,1546 C 2097,1542 2095,1539 2093,1535 2093,1534 2091,1533 2089,1533 2089,1533 2088,1533 2088,1534 2086,1534 2082,1533 2082,1537 2082,1540 2081,1542 2081,1544 2081,1549 2079,1552 2074,1550 2073,1545 2072,1541 2070,1536 2061,1535 2061,1535 2058,1543 2057,1545 2056,1547 2056,1549 2049,1549 2049,1549 2049,1543 2049,1542 2049,1540 2049,1538 2050,1534 2049,1533 2044,1531 2040,1530 2040,1531 2038,1534 2036,1537 2034,1539 2031,1542 L 2025,1540 C 2027,1535 2028,1530 2030,1526 2030,1525 2029,1525 2029,1525 2022,1520 2022,1520 2015,1525 L 2014,1527 C 2010,1530 2010,1530 2005,1525 2007,1522 2009,1518 2012,1515 2014,1512 2010,1510 2009,1508 2008,1506 2006,1506 2004,1507 2002,1508 1999,1509 1996,1511 1993,1512 1992,1512 1991,1510 1989,1507 1990,1506 1992,1504 1993,1504 1993,1503 1994,1502 2001,1496 2001,1496 1996,1488 1992,1489 1988,1489 1984,1490 1981,1491 1980,1489 1980,1487 1979,1485 1979,1484 1981,1483 1983,1483 1984,1482 1985,1481 1993,1477 1993,1477 1990,1468 L 1976,1467 C 1974,1461 1974,1461 1980,1459 1981,1459 1983,1459 1984,1458 1988,1458 1990,1456 1990,1452 1990,1448 1990,1447 1986,1446 1984,1445 1983,1445 1981,1444 1978,1443 1977,1443 1977,1442 1961,1461 1952,1484 1952,1509 1952,1579 2024,1635 2114,1635 2127,1635 2140,1634 2152,1631 L 2152,1630 C 2149,1629 2145,1628 2142,1627 L 2136,1631 C 2133,1629 2130,1627 2127,1625 L 2129,1618 C 2126,1615 2124,1612 2122,1609 L 2115,1611 C 2113,1607 2111,1604 2110,1600 L 2115,1595 C 2114,1592 2113,1588 2113,1584 L 2106,1582 2106,1576 C 2106,1574 2107,1572 2107,1570 L 2114,1569 C 2115,1565 2116,1561 2118,1558 L 2113,1553 C 2115,1548 2117,1545 2120,1542 L 2126,1544 C 2129,1541 2132,1539 2135,1537 L 2134,1530 C 2137,1528 2141,1526 2144,1525 L 2149,1530 C 2153,1529 2156,1529 2160,1528 L 2162,1522 C 2164,1521 2166,1521 2168,1522 2170,1522 2172,1522 2174,1522 L 2176,1529 C 2180,1530 2184,1531 2187,1533 L 2193,1528 C 2196,1530 2199,1532 2202,1535 L 2200,1542 C 2203,1544 2205,1547 2207,1550 L 2214,1549 C 2216,1553 2218,1557 2219,1561 L 2214,1565 C 2215,1569 2216,1573 2216,1576 L 2223,1579 C 2223,1581 2223,1583 2223,1585 2222,1587 2222,1589 2222,1590 L 2215,1592 C 2214,1596 2213,1599 2211,1602 L 2216,1608 C 2253,1585 2277,1549 2277,1509 2277,1445 2215,1392 2134,1385 Z"/>
    </g>
   </g>
   <g class="com.sun.star.drawing.ClosedBezierShape">
    <g id="id16">
     <rect class="BoundingBox" stroke="none" fill="none" x="1951" y="1383" width="328" height="254"/>
     <path fill="none" stroke="rgb(35,31,32)" stroke-width="2" stroke-linejoin="miter" d="M 2277,1509 C 2277,1578 2204,1635 2114,1635 2024,1635 1952,1578 1952,1509 1952,1440 2024,1384 2114,1384 2204,1384 2277,1440 2277,1509 Z"/>
    </g>
   </g>
  </g>
 </g>
</svg>