<?xml version="1.0" encoding="UTF-8"?>
<!DOCTYPE svg PUBLIC "-//W3C//DTD SVG 1.1//EN" "http://www.w3.org/Graphics/SVG/1.1/DTD/svg11.dtd">
<svg version="1.2" width="3.28mm" height="2.54mm" viewBox="3493 12756 328 254" preserveAspectRatio="xMidYMid" fill-rule="evenodd" stroke-width="28.222" stroke-linejoin="round" xmlns="http://www.w3.org/2000/svg" xmlns:ooo="http://xml.openoffice.org/svg/export" xmlns:xlink="http://www.w3.org/1999/xlink" xmlns:presentation="http://sun.com/xmlns/staroffice/presentation" xmlns:smil="http://www.w3.org/2001/SMIL20/" xmlns:anim="urn:oasis:names:tc:opendocument:xmlns:animation:1.0" xml:space="preserve">
 <defs class="EmbeddedBulletChars">
  <g id="bullet-char-template-57356" transform="scale(0.00048828125,-0.00048828125)">
   <path d="M 580,1141 L 1163,571 580,0 -4,571 580,1141 Z"/>
  </g>
  <g id="bullet-char-template-57354" transform="scale(0.00048828125,-0.00048828125)">
   <path d="M 8,1128 L 1137,1128 1137,0 8,0 8,1128 Z"/>
  </g>
  <g id="bullet-char-template-10146" transform="scale(0.00048828125,-0.00048828125)">
   <path d="M 174,0 L 602,739 174,1481 1456,739 174,0 Z M 1358,739 L 309,1346 659,739 1358,739 Z"/>
  </g>
  <g id="bullet-char-template-10132" transform="scale(0.00048828125,-0.00048828125)">
   <path d="M 2015,739 L 1276,0 717,0 1260,543 174,543 174,936 1260,936 717,1481 1274,1481 2015,739 Z"/>
  </g>
  <g id="bullet-char-template-10007" transform="scale(0.00048828125,-0.00048828125)">
   <path d="M 0,-2 C -7,14 -16,27 -25,37 L 356,567 C 262,823 215,952 215,954 215,979 228,992 255,992 264,992 276,990 289,987 310,991 331,999 354,1012 L 381,999 492,748 772,1049 836,1024 860,1049 C 881,1039 901,1025 922,1006 886,937 835,863 770,784 769,783 710,716 594,584 L 774,223 C 774,196 753,168 711,139 L 727,119 C 717,90 699,76 672,76 641,76 570,178 457,381 L 164,-76 C 142,-110 111,-127 72,-127 30,-127 9,-110 8,-76 1,-67 -2,-52 -2,-32 -2,-23 -1,-13 0,-2 Z"/>
  </g>
  <g id="bullet-char-template-10004" transform="scale(0.00048828125,-0.00048828125)">
   <path d="M 285,-33 C 182,-33 111,30 74,156 52,228 41,333 41,471 41,549 55,616 82,672 116,743 169,778 240,778 293,778 328,747 346,684 L 369,508 C 377,444 397,411 428,410 L 1163,1116 C 1174,1127 1196,1133 1229,1133 1271,1133 1292,1118 1292,1087 L 1292,965 C 1292,929 1282,901 1262,881 L 442,47 C 390,-6 338,-33 285,-33 Z"/>
  </g>
  <g id="bullet-char-template-9679" transform="scale(0.00048828125,-0.00048828125)">
   <path d="M 813,0 C 632,0 489,54 383,161 276,268 223,411 223,592 223,773 276,916 383,1023 489,1130 632,1184 813,1184 992,1184 1136,1130 1245,1023 1353,916 1407,772 1407,592 1407,412 1353,268 1245,161 1136,54 992,0 813,0 Z"/>
  </g>
  <g id="bullet-char-template-8226" transform="scale(0.00048828125,-0.00048828125)">
   <path d="M 346,457 C 273,457 209,483 155,535 101,586 74,649 74,723 74,796 101,859 155,911 209,963 273,989 346,989 419,989 480,963 531,910 582,859 608,796 608,723 608,648 583,586 532,535 482,483 420,457 346,457 Z"/>
  </g>
  <g id="bullet-char-template-8211" transform="scale(0.00048828125,-0.00048828125)">
   <path d="M -4,459 L 1135,459 1135,606 -4,606 -4,459 Z"/>
  </g>
  <g id="bullet-char-template-61548" transform="scale(0.00048828125,-0.00048828125)">
   <path d="M 173,740 C 173,903 231,1043 346,1159 462,1274 601,1332 765,1332 928,1332 1067,1274 1183,1159 1299,1043 1357,903 1357,740 1357,577 1299,437 1183,322 1067,206 928,148 765,148 601,148 462,206 346,322 231,437 173,577 173,740 Z"/>
  </g>
 </defs>
 <g class="Page">
  <g class="com.sun.star.drawing.ClosedBezierShape">
   <g id="id3">
    <rect class="BoundingBox" stroke="none" fill="none" x="3494" y="12756" width="326" height="245"/>
    <path fill="rgb(35,31,32)" stroke="none" d="M 3819,12882 C 3819,12935 3776,12981 3716,12999 3683,13002 3664,12994 3664,12985 3663,12976 3682,12969 3700,12960 3725,12949 3737,12941 3738,12934 3741,12921 3710,12913 3685,12908 3669,12904 3630,12898 3701,12889 3686,12888 3670,12889 3655,12891 3615,12895 3615,12906 3640,12912 3650,12914 3656,12918 3655,12921 3653,12929 3632,12933 3616,12940 3588,12954 3538,12967 3581,12994 3530,12973 3494,12930 3494,12882 3494,12813 3567,12756 3656,12756 3747,12756 3819,12813 3819,12882 Z M 3756,12875 L 3733,12867 3733,12883 3756,12875 Z M 3751,12841 L 3725,12842 3728,12849 3731,12856 3751,12841 Z M 3733,12811 L 3709,12820 3714,12826 3720,12832 3733,12811 Z M 3706,12789 L 3687,12805 3694,12809 3701,12813 3706,12789 Z M 3673,12777 L 3662,12799 3669,12801 3677,12802 3673,12777 Z M 3639,12777 L 3636,12802 3643,12801 3651,12799 3639,12777 Z M 3607,12789 L 3612,12813 3618,12809 3625,12805 3607,12789 Z M 3580,12811 L 3594,12832 3599,12826 3603,12820 3580,12811 Z M 3563,12841 L 3583,12856 3585,12849 3588,12842 3563,12841 Z M 3557,12875 L 3581,12883 3581,12867 3557,12875 Z M 3647,12882 C 3672,12878 3698,12878 3725,12881 3725,12879 3725,12877 3725,12875 3725,12838 3695,12806 3659,12806 3622,12806 3589,12840 3589,12877 3589,12882 3589,12887 3591,12892 3607,12889 3624,12885 3646,12882 L 3647,12882 Z"/>
   </g>
  </g>
  <g class="com.sun.star.drawing.ClosedBezierShape">
   <g id="id4">
    <rect class="BoundingBox" stroke="none" fill="none" x="3493" y="12756" width="328" height="254"/>
    <path fill="none" stroke="rgb(35,31,32)" stroke-width="2" stroke-linejoin="miter" d="M 3819,12883 C 3819,12952 3747,13008 3656,13008 3567,13008 3494,12952 3494,12883 3494,12813 3567,12757 3656,12757 3747,12757 3819,12813 3819,12883 Z"/>
   </g>
  </g>
 </g>
</svg>